<?xml version="1.0" encoding="UTF-8" standalone="no"?>
<!-- Created with Inkscape (http://www.inkscape.org/) -->

<svg
   xmlns:dc="http://purl.org/dc/elements/1.1/"
   xmlns:cc="http://creativecommons.org/ns#"
   xmlns:rdf="http://www.w3.org/1999/02/22-rdf-syntax-ns#"
   xmlns:svg="http://www.w3.org/2000/svg"
   xmlns="http://www.w3.org/2000/svg"
   xmlns:xlink="http://www.w3.org/1999/xlink"
   xmlns:sodipodi="http://sodipodi.sourceforge.net/DTD/sodipodi-0.dtd"
   xmlns:inkscape="http://www.inkscape.org/namespaces/inkscape"
   width="744.09448819"
   height="1052.3622047"
   id="svg2"
   version="1.1"
   inkscape:version="0.48.5 r10040"
   sodipodi:docname="Icon.svg">
  <defs
     id="defs4">
    <linearGradient
       id="linearGradient3800">
      <stop
         style="stop-color:#800000;stop-opacity:1;"
         offset="0"
         id="stop3802" />
      <stop
         style="stop-color:#4b0000;stop-opacity:1;"
         offset="1"
         id="stop3804" />
    </linearGradient>
    <linearGradient
       inkscape:collect="always"
       xlink:href="#linearGradient3800"
       id="linearGradient3808"
       x1="421.36719"
       y1="196.48111"
       x2="484.48978"
       y2="259.86816"
       gradientUnits="userSpaceOnUse" />
    <linearGradient
       inkscape:collect="always"
       xlink:href="#linearGradient3800"
       id="linearGradient3927"
       gradientUnits="userSpaceOnUse"
       x1="421.36719"
       y1="196.48111"
       x2="484.48978"
       y2="259.86816" />
    <linearGradient
       inkscape:collect="always"
       xlink:href="#linearGradient3800"
       id="linearGradient3949"
       gradientUnits="userSpaceOnUse"
       x1="421.36719"
       y1="196.48111"
       x2="484.48978"
       y2="259.86816" />
    <linearGradient
       inkscape:collect="always"
       xlink:href="#linearGradient3800"
       id="linearGradient3035"
       gradientUnits="userSpaceOnUse"
       gradientTransform="matrix(39.28865,0,0,19.010637,-18163.937,-2469.6771)"
       x1="421.36719"
       y1="196.48111"
       x2="484.48978"
       y2="259.86816" />
    <linearGradient
       inkscape:collect="always"
       xlink:href="#linearGradient3800"
       id="linearGradient3129"
       gradientUnits="userSpaceOnUse"
       gradientTransform="matrix(39.28865,0,0,19.010637,-18163.937,-949.67711)"
       x1="421.36719"
       y1="196.48111"
       x2="484.48978"
       y2="259.86816" />
    <linearGradient
       inkscape:collect="always"
       xlink:href="#linearGradient3800"
       id="linearGradient3148"
       gradientUnits="userSpaceOnUse"
       gradientTransform="matrix(39.28865,0,0,19.010637,-18163.937,-949.67711)"
       x1="421.36719"
       y1="196.48111"
       x2="484.48978"
       y2="259.86816" />
    <linearGradient
       inkscape:collect="always"
       xlink:href="#linearGradient3800"
       id="linearGradient3174"
       gradientUnits="userSpaceOnUse"
       gradientTransform="matrix(39.28865,0,0,19.010637,-18163.937,-949.67711)"
       x1="421.36719"
       y1="196.48111"
       x2="484.48978"
       y2="259.86816" />
    <linearGradient
       inkscape:collect="always"
       xlink:href="#linearGradient3800"
       id="linearGradient3200"
       gradientUnits="userSpaceOnUse"
       gradientTransform="matrix(39.28865,0,0,19.010637,-18163.937,-949.67711)"
       x1="421.36719"
       y1="196.48111"
       x2="484.48978"
       y2="259.86816" />
    <linearGradient
       inkscape:collect="always"
       xlink:href="#linearGradient3800"
       id="linearGradient3226"
       gradientUnits="userSpaceOnUse"
       gradientTransform="matrix(39.28865,0,0,19.010637,-18163.937,-949.67711)"
       x1="421.36719"
       y1="196.48111"
       x2="484.48978"
       y2="259.86816" />
  </defs>
  <sodipodi:namedview
     id="base"
     pagecolor="#ffffff"
     bordercolor="#666666"
     borderopacity="1.0"
     inkscape:pageopacity="0.0"
     inkscape:pageshadow="2"
     inkscape:zoom="0.175"
     inkscape:cx="1332.7893"
     inkscape:cy="644.06935"
     inkscape:document-units="px"
     inkscape:current-layer="layer1"
     showgrid="false"
     inkscape:window-width="1920"
     inkscape:window-height="1017"
     inkscape:window-x="1672"
     inkscape:window-y="-8"
     inkscape:window-maximized="1" />
  <metadata
     id="metadata7">
    <rdf:RDF>
      <cc:Work
         rdf:about="">
        <dc:format>image/svg+xml</dc:format>
        <dc:type
           rdf:resource="http://purl.org/dc/dcmitype/StillImage" />
        <dc:title />
      </cc:Work>
    </rdf:RDF>
  </metadata>
  <g
     inkscape:label="Layer 1"
     inkscape:groupmode="layer"
     id="layer1">
    <g
       id="g3916"
       transform="matrix(2.0278013,0,0,2.0278013,-649.25439,-184.2542)">
      <rect
         ry="10"
         rx="10"
         y="196.73964"
         x="421.36719"
         height="63.122555"
         width="63.122555"
         id="rect3011"
         style="fill:url(#linearGradient3927);fill-opacity:1" />
      <path
         d="m 454.94488,225.62393 c 2.15545,0 3.96329,1.73828 3.96329,3.96328 0,2.225 -1.73828,3.96328 -3.96329,3.96328 -2.15549,0 -3.96329,-1.73828 -3.96329,-3.96328 0,-2.225 1.8078,-3.96328 3.96329,-3.96328 z m 0,-2.225 c -3.33749,0 -6.04922,2.71171 -6.04922,6.04921 0,3.3375 2.71173,6.04924 6.04922,6.04924 3.33749,0 6.04923,-2.71174 6.04923,-6.04924 0,-3.3375 -2.71174,-6.04921 -6.04923,-6.04921 z m 5.14529,-4.10235 c 0.48673,0 0.90394,0.41718 0.90394,0.9039 l 0,1.11251 0,0.0696 1.46014,0 c 0.9039,0 1.59921,0.69531 1.59921,1.59921 l 0,12.72424 c 0,0.9039 -0.69531,1.59921 -1.59921,1.59921 l -19.05158,0 c -0.9039,0 -1.59921,-0.69531 -1.59921,-1.59921 l 0,-12.72424 c 0,-0.9039 0.69531,-1.59921 1.59921,-1.59921 l 0.76487,0 0,-0.0696 0,-0.48672 c 0,-0.76485 0.62576,-1.3211 1.32107,-1.3211 l 5.49298,0 c 0.76483,0 1.32111,0.62579 1.32111,1.3211 l 0,0.48672 0,0.0696 6.88357,0 0,-0.0696 0,-1.11251 c 0,-0.13906 0,-0.27812 0.0696,-0.34766 l 0,-0.0695 c 0.20858,-0.27813 0.48668,-0.48671 0.83434,-0.48671 z"
         id="path1"
         inkscape:connector-curvature="0"
         style="fill:#ffffff" />
      <g
         transform="translate(-0.23395401,1.5101467)"
         id="g3793">
        <path
           style="fill:none;stroke:#ffffff;stroke-width:0.56656343px;stroke-linecap:butt;stroke-linejoin:miter;stroke-opacity:1"
           d="m 424.64286,226.91218 28.59342,-16.50842"
           id="path3013"
           inkscape:connector-curvature="0" />
        <path
           inkscape:connector-curvature="0"
           id="path3015"
           d="m 424.64286,226.66936 28.59342,16.50842"
           style="fill:none;stroke:#ffffff;stroke-width:0.56656343px;stroke-linecap:butt;stroke-linejoin:miter;stroke-opacity:1" />
        <g
           id="g3021"
           transform="translate(-1.9114422,0)"
           style="stroke:#ffffff;stroke-opacity:1">
          <path
             style="fill:none;stroke:#ffffff;stroke-width:0.56656343px;stroke-linecap:butt;stroke-linejoin:miter;stroke-opacity:1"
             d="M 483.59342,226.91218 455,210.40376"
             id="path3017"
             inkscape:connector-curvature="0" />
          <path
             inkscape:connector-curvature="0"
             id="path3019"
             d="M 483.59342,226.66936 455,243.17778"
             style="fill:none;stroke:#ffffff;stroke-width:0.56656343px;stroke-linecap:butt;stroke-linejoin:miter;stroke-opacity:1" />
        </g>
      </g>
      <path
         style="fill:#ffffff"
         inkscape:connector-curvature="0"
         id="path3810"
         d="m 454.94488,225.62393 c 2.15545,0 3.96329,1.73828 3.96329,3.96328 0,2.225 -1.73828,3.96328 -3.96329,3.96328 -2.15549,0 -3.96329,-1.73828 -3.96329,-3.96328 0,-2.225 1.8078,-3.96328 3.96329,-3.96328 z m 0,-2.225 c -3.33749,0 -6.04922,2.71171 -6.04922,6.04921 0,3.3375 2.71173,6.04924 6.04922,6.04924 3.33749,0 6.04923,-2.71174 6.04923,-6.04924 0,-3.3375 -2.71174,-6.04921 -6.04923,-6.04921 z m 5.14529,-4.10235 c 0.48673,0 0.90394,0.41718 0.90394,0.9039 l 0,1.11251 0,0.0696 1.46014,0 c 0.9039,0 1.59921,0.69531 1.59921,1.59921 l 0,12.72424 c 0,0.9039 -0.69531,1.59921 -1.59921,1.59921 l -19.05158,0 c -0.9039,0 -1.59921,-0.69531 -1.59921,-1.59921 l 0,-12.72424 c 0,-0.9039 0.69531,-1.59921 1.59921,-1.59921 l 0.76487,0 0,-0.0696 0,-0.48672 c 0,-0.76485 0.62576,-1.3211 1.32107,-1.3211 l 5.49298,0 c 0.76483,0 1.32111,0.62579 1.32111,1.3211 l 0,0.48672 0,0.0696 6.88357,0 0,-0.0696 0,-1.11251 c 0,-0.13906 0,-0.27812 0.0696,-0.34766 l 0,-0.0695 c 0.20858,-0.27813 0.48668,-0.48671 0.83434,-0.48671 z" />
    </g>
    <g
       transform="matrix(2.0278013,0,0,2.0278013,-450.25434,-184.2542)"
       id="g3929">
      <rect
         style="fill:url(#linearGradient3949);fill-opacity:1"
         id="rect3931"
         width="63.122555"
         height="63.122555"
         x="421.36719"
         y="196.73964"
         inkscape:export-filename="C:\Users\markr\Source\Repos\TrueHyperFocal\TrueHyperFocal\Graphics\icon-512.png"
         inkscape:export-xdpi="360"
         inkscape:export-ydpi="360" />
      <path
         style="fill:#ffffff"
         inkscape:connector-curvature="0"
         id="path3933"
         d="m 454.94488,225.62393 c 2.15545,0 3.96329,1.73828 3.96329,3.96328 0,2.225 -1.73828,3.96328 -3.96329,3.96328 -2.15549,0 -3.96329,-1.73828 -3.96329,-3.96328 0,-2.225 1.8078,-3.96328 3.96329,-3.96328 z m 0,-2.225 c -3.33749,0 -6.04922,2.71171 -6.04922,6.04921 0,3.3375 2.71173,6.04924 6.04922,6.04924 3.33749,0 6.04923,-2.71174 6.04923,-6.04924 0,-3.3375 -2.71174,-6.04921 -6.04923,-6.04921 z m 5.14529,-4.10235 c 0.48673,0 0.90394,0.41718 0.90394,0.9039 l 0,1.11251 0,0.0696 1.46014,0 c 0.9039,0 1.59921,0.69531 1.59921,1.59921 l 0,12.72424 c 0,0.9039 -0.69531,1.59921 -1.59921,1.59921 l -19.05158,0 c -0.9039,0 -1.59921,-0.69531 -1.59921,-1.59921 l 0,-12.72424 c 0,-0.9039 0.69531,-1.59921 1.59921,-1.59921 l 0.76487,0 0,-0.0696 0,-0.48672 c 0,-0.76485 0.62576,-1.3211 1.32107,-1.3211 l 5.49298,0 c 0.76483,0 1.32111,0.62579 1.32111,1.3211 l 0,0.48672 0,0.0696 6.88357,0 0,-0.0696 0,-1.11251 c 0,-0.13906 0,-0.27812 0.0696,-0.34766 l 0,-0.0695 c 0.20858,-0.27813 0.48668,-0.48671 0.83434,-0.48671 z" />
      <g
         id="g3935"
         transform="translate(-0.23395401,1.5101467)">
        <path
           inkscape:connector-curvature="0"
           id="path3937"
           d="m 424.64286,226.91218 28.59342,-16.50842"
           style="fill:none;stroke:#ffffff;stroke-width:0.56656343px;stroke-linecap:butt;stroke-linejoin:miter;stroke-opacity:1" />
        <path
           style="fill:none;stroke:#ffffff;stroke-width:0.56656343px;stroke-linecap:butt;stroke-linejoin:miter;stroke-opacity:1"
           d="m 424.64286,226.66936 28.59342,16.50842"
           id="path3939"
           inkscape:connector-curvature="0" />
        <g
           style="stroke:#ffffff;stroke-opacity:1"
           transform="translate(-1.9114422,0)"
           id="g3941">
          <path
             inkscape:connector-curvature="0"
             id="path3943"
             d="M 483.59342,226.91218 455,210.40376"
             style="fill:none;stroke:#ffffff;stroke-width:0.56656343px;stroke-linecap:butt;stroke-linejoin:miter;stroke-opacity:1" />
          <path
             style="fill:none;stroke:#ffffff;stroke-width:0.56656343px;stroke-linecap:butt;stroke-linejoin:miter;stroke-opacity:1"
             d="M 483.59342,226.66936 455,243.17778"
             id="path3945"
             inkscape:connector-curvature="0" />
        </g>
      </g>
      <path
         d="m 454.94488,225.62393 c 2.15545,0 3.96329,1.73828 3.96329,3.96328 0,2.225 -1.73828,3.96328 -3.96329,3.96328 -2.15549,0 -3.96329,-1.73828 -3.96329,-3.96328 0,-2.225 1.8078,-3.96328 3.96329,-3.96328 z m 0,-2.225 c -3.33749,0 -6.04922,2.71171 -6.04922,6.04921 0,3.3375 2.71173,6.04924 6.04922,6.04924 3.33749,0 6.04923,-2.71174 6.04923,-6.04924 0,-3.3375 -2.71174,-6.04921 -6.04923,-6.04921 z m 5.14529,-4.10235 c 0.48673,0 0.90394,0.41718 0.90394,0.9039 l 0,1.11251 0,0.0696 1.46014,0 c 0.9039,0 1.59921,0.69531 1.59921,1.59921 l 0,12.72424 c 0,0.9039 -0.69531,1.59921 -1.59921,1.59921 l -19.05158,0 c -0.9039,0 -1.59921,-0.69531 -1.59921,-1.59921 l 0,-12.72424 c 0,-0.9039 0.69531,-1.59921 1.59921,-1.59921 l 0.76487,0 0,-0.0696 0,-0.48672 c 0,-0.76485 0.62576,-1.3211 1.32107,-1.3211 l 5.49298,0 c 0.76483,0 1.32111,0.62579 1.32111,1.3211 l 0,0.48672 0,0.0696 6.88357,0 0,-0.0696 0,-1.11251 c 0,-0.13906 0,-0.27812 0.0696,-0.34766 l 0,-0.0695 c 0.20858,-0.27813 0.48668,-0.48671 0.83434,-0.48671 z"
         id="path3947"
         inkscape:connector-curvature="0"
         style="fill:#ffffff" />
    </g>
    <rect
       inkscape:export-ydpi="360"
       inkscape:export-xdpi="360"
       inkscape:export-filename="C:\Users\markr\Source\Repos\TrueHyperFocal\TrueHyperFocal\Graphics\icon-512.png"
       y="1270.4686"
       x="-1608.9893"
       height="1200"
       width="2480"
       id="rect3030"
       style="fill:url(#linearGradient3035);fill-opacity:1"
       transform="matrix(0,-1,1,0,0,0)" />
    <g
       id="g3088"
       transform="matrix(5.433068,0,0,5.433068,-3048.2913,-1145.178)">
      <g
         transform="matrix(2.0278013,0,0,2.0278013,-13.111486,-184.2542)"
         id="g3066">
        <path
           style="fill:#ffffff"
           inkscape:connector-curvature="0"
           id="path3070"
           d="m 454.94488,225.62393 c 2.15545,0 3.96329,1.73828 3.96329,3.96328 0,2.225 -1.73828,3.96328 -3.96329,3.96328 -2.15549,0 -3.96329,-1.73828 -3.96329,-3.96328 0,-2.225 1.8078,-3.96328 3.96329,-3.96328 z m 0,-2.225 c -3.33749,0 -6.04922,2.71171 -6.04922,6.04921 0,3.3375 2.71173,6.04924 6.04922,6.04924 3.33749,0 6.04923,-2.71174 6.04923,-6.04924 0,-3.3375 -2.71174,-6.04921 -6.04923,-6.04921 z m 5.14529,-4.10235 c 0.48673,0 0.90394,0.41718 0.90394,0.9039 l 0,1.11251 0,0.0696 1.46014,0 c 0.9039,0 1.59921,0.69531 1.59921,1.59921 l 0,12.72424 c 0,0.9039 -0.69531,1.59921 -1.59921,1.59921 l -19.05158,0 c -0.9039,0 -1.59921,-0.69531 -1.59921,-1.59921 l 0,-12.72424 c 0,-0.9039 0.69531,-1.59921 1.59921,-1.59921 l 0.76487,0 0,-0.0696 0,-0.48672 c 0,-0.76485 0.62576,-1.3211 1.32107,-1.3211 l 5.49298,0 c 0.76483,0 1.32111,0.62579 1.32111,1.3211 l 0,0.48672 0,0.0696 6.88357,0 0,-0.0696 0,-1.11251 c 0,-0.13906 0,-0.27812 0.0696,-0.34766 l 0,-0.0695 c 0.20858,-0.27813 0.48668,-0.48671 0.83434,-0.48671 z" />
        <g
           id="g3072"
           transform="translate(-0.23395401,1.5101467)">
          <path
             inkscape:connector-curvature="0"
             id="path3074"
             d="m 424.64286,226.91218 28.59342,-16.50842"
             style="fill:none;stroke:#ffffff;stroke-width:0.56656343px;stroke-linecap:butt;stroke-linejoin:miter;stroke-opacity:1" />
          <path
             style="fill:none;stroke:#ffffff;stroke-width:0.56656343px;stroke-linecap:butt;stroke-linejoin:miter;stroke-opacity:1"
             d="m 424.64286,226.66936 28.59342,16.50842"
             id="path3076"
             inkscape:connector-curvature="0" />
          <g
             style="stroke:#ffffff;stroke-opacity:1"
             transform="translate(-1.9114422,0)"
             id="g3078">
            <path
               inkscape:connector-curvature="0"
               id="path3080"
               d="M 483.59342,226.91218 455,210.40376"
               style="fill:none;stroke:#ffffff;stroke-width:0.56656343px;stroke-linecap:butt;stroke-linejoin:miter;stroke-opacity:1" />
            <path
               style="fill:none;stroke:#ffffff;stroke-width:0.56656343px;stroke-linecap:butt;stroke-linejoin:miter;stroke-opacity:1"
               d="M 483.59342,226.66936 455,243.17778"
               id="path3082"
               inkscape:connector-curvature="0" />
          </g>
        </g>
        <path
           d="m 454.94488,225.62393 c 2.15545,0 3.96329,1.73828 3.96329,3.96328 0,2.225 -1.73828,3.96328 -3.96329,3.96328 -2.15549,0 -3.96329,-1.73828 -3.96329,-3.96328 0,-2.225 1.8078,-3.96328 3.96329,-3.96328 z m 0,-2.225 c -3.33749,0 -6.04922,2.71171 -6.04922,6.04921 0,3.3375 2.71173,6.04924 6.04922,6.04924 3.33749,0 6.04923,-2.71174 6.04923,-6.04924 0,-3.3375 -2.71174,-6.04921 -6.04923,-6.04921 z m 5.14529,-4.10235 c 0.48673,0 0.90394,0.41718 0.90394,0.9039 l 0,1.11251 0,0.0696 1.46014,0 c 0.9039,0 1.59921,0.69531 1.59921,1.59921 l 0,12.72424 c 0,0.9039 -0.69531,1.59921 -1.59921,1.59921 l -19.05158,0 c -0.9039,0 -1.59921,-0.69531 -1.59921,-1.59921 l 0,-12.72424 c 0,-0.9039 0.69531,-1.59921 1.59921,-1.59921 l 0.76487,0 0,-0.0696 0,-0.48672 c 0,-0.76485 0.62576,-1.3211 1.32107,-1.3211 l 5.49298,0 c 0.76483,0 1.32111,0.62579 1.32111,1.3211 l 0,0.48672 0,0.0696 6.88357,0 0,-0.0696 0,-1.11251 c 0,-0.13906 0,-0.27812 0.0696,-0.34766 l 0,-0.0695 c 0.20858,-0.27813 0.48668,-0.48671 0.83434,-0.48671 z"
           id="path3084"
           inkscape:connector-curvature="0"
           style="fill:#ffffff" />
      </g>
    </g>
    <flowRoot
       xml:space="preserve"
       id="flowRoot3099"
       style="fill:black;stroke:none;stroke-opacity:1;stroke-width:1px;stroke-linejoin:miter;stroke-linecap:butt;fill-opacity:1;font-family:sans-serif;font-style:normal;font-weight:normal;font-size:40px;line-height:125%;letter-spacing:0px;word-spacing:0px"><flowRegion
         id="flowRegion3101"><rect
           id="rect3103"
           width="942.85712"
           height="314.28571"
           x="1417.1428"
           y="535.2193" /></flowRegion><flowPara
         id="flowPara3105"></flowPara></flowRoot>    <g
       id="g3131"
       transform="matrix(0.375,0,0,0.375,2738.3285,994.18973)">
      <rect
         inkscape:export-ydpi="360"
         inkscape:export-xdpi="360"
         inkscape:export-filename="C:\Users\markr\Source\Repos\TrueHyperFocal\TrueHyperFocal\Graphics\icon-512.png"
         y="2790.4685"
         x="-1608.9893"
         height="1200"
         width="2480"
         id="rect3107"
         style="fill:url(#linearGradient3148);fill-opacity:1"
         transform="matrix(0,-1,1,0,0,0)" />
      <g
         id="g3109"
         transform="matrix(5.433068,0,0,5.433068,-1528.2913,-1145.178)">
        <g
           transform="matrix(2.0278013,0,0,2.0278013,-13.111486,-184.2542)"
           id="g3111">
          <path
             style="fill:#ffffff"
             inkscape:connector-curvature="0"
             id="path3113"
             d="m 454.94488,225.62393 c 2.15545,0 3.96329,1.73828 3.96329,3.96328 0,2.225 -1.73828,3.96328 -3.96329,3.96328 -2.15549,0 -3.96329,-1.73828 -3.96329,-3.96328 0,-2.225 1.8078,-3.96328 3.96329,-3.96328 z m 0,-2.225 c -3.33749,0 -6.04922,2.71171 -6.04922,6.04921 0,3.3375 2.71173,6.04924 6.04922,6.04924 3.33749,0 6.04923,-2.71174 6.04923,-6.04924 0,-3.3375 -2.71174,-6.04921 -6.04923,-6.04921 z m 5.14529,-4.10235 c 0.48673,0 0.90394,0.41718 0.90394,0.9039 l 0,1.11251 0,0.0696 1.46014,0 c 0.9039,0 1.59921,0.69531 1.59921,1.59921 l 0,12.72424 c 0,0.9039 -0.69531,1.59921 -1.59921,1.59921 l -19.05158,0 c -0.9039,0 -1.59921,-0.69531 -1.59921,-1.59921 l 0,-12.72424 c 0,-0.9039 0.69531,-1.59921 1.59921,-1.59921 l 0.76487,0 0,-0.0696 0,-0.48672 c 0,-0.76485 0.62576,-1.3211 1.32107,-1.3211 l 5.49298,0 c 0.76483,0 1.32111,0.62579 1.32111,1.3211 l 0,0.48672 0,0.0696 6.88357,0 0,-0.0696 0,-1.11251 c 0,-0.13906 0,-0.27812 0.0696,-0.34766 l 0,-0.0695 c 0.20858,-0.27813 0.48668,-0.48671 0.83434,-0.48671 z" />
          <g
             id="g3115"
             transform="translate(-0.23395401,1.5101467)">
            <path
               inkscape:connector-curvature="0"
               id="path3117"
               d="m 424.64286,226.91218 28.59342,-16.50842"
               style="fill:none;stroke:#ffffff;stroke-width:0.56656343px;stroke-linecap:butt;stroke-linejoin:miter;stroke-opacity:1" />
            <path
               style="fill:none;stroke:#ffffff;stroke-width:0.56656343px;stroke-linecap:butt;stroke-linejoin:miter;stroke-opacity:1"
               d="m 424.64286,226.66936 28.59342,16.50842"
               id="path3119"
               inkscape:connector-curvature="0" />
            <g
               style="stroke:#ffffff;stroke-opacity:1"
               transform="translate(-1.9114422,0)"
               id="g3121">
              <path
                 inkscape:connector-curvature="0"
                 id="path3123"
                 d="M 483.59342,226.91218 455,210.40376"
                 style="fill:none;stroke:#ffffff;stroke-width:0.56656343px;stroke-linecap:butt;stroke-linejoin:miter;stroke-opacity:1" />
              <path
                 style="fill:none;stroke:#ffffff;stroke-width:0.56656343px;stroke-linecap:butt;stroke-linejoin:miter;stroke-opacity:1"
                 d="M 483.59342,226.66936 455,243.17778"
                 id="path3125"
                 inkscape:connector-curvature="0" />
            </g>
          </g>
          <path
             d="m 454.94488,225.62393 c 2.15545,0 3.96329,1.73828 3.96329,3.96328 0,2.225 -1.73828,3.96328 -3.96329,3.96328 -2.15549,0 -3.96329,-1.73828 -3.96329,-3.96328 0,-2.225 1.8078,-3.96328 3.96329,-3.96328 z m 0,-2.225 c -3.33749,0 -6.04922,2.71171 -6.04922,6.04921 0,3.3375 2.71173,6.04924 6.04922,6.04924 3.33749,0 6.04923,-2.71174 6.04923,-6.04924 0,-3.3375 -2.71174,-6.04921 -6.04923,-6.04921 z m 5.14529,-4.10235 c 0.48673,0 0.90394,0.41718 0.90394,0.9039 l 0,1.11251 0,0.0696 1.46014,0 c 0.9039,0 1.59921,0.69531 1.59921,1.59921 l 0,12.72424 c 0,0.9039 -0.69531,1.59921 -1.59921,1.59921 l -19.05158,0 c -0.9039,0 -1.59921,-0.69531 -1.59921,-1.59921 l 0,-12.72424 c 0,-0.9039 0.69531,-1.59921 1.59921,-1.59921 l 0.76487,0 0,-0.0696 0,-0.48672 c 0,-0.76485 0.62576,-1.3211 1.32107,-1.3211 l 5.49298,0 c 0.76483,0 1.32111,0.62579 1.32111,1.3211 l 0,0.48672 0,0.0696 6.88357,0 0,-0.0696 0,-1.11251 c 0,-0.13906 0,-0.27812 0.0696,-0.34766 l 0,-0.0695 c 0.20858,-0.27813 0.48668,-0.48671 0.83434,-0.48671 z"
             id="path3127"
             inkscape:connector-curvature="0"
             style="fill:#ffffff" />
        </g>
      </g>
    </g>
    <g
       transform="matrix(0.3125,0,0,0.3125,3678.447,1094.7516)"
       id="g3150">
      <rect
         transform="matrix(0,-1,1,0,0,0)"
         style="fill:url(#linearGradient3174);fill-opacity:1"
         id="rect3152"
         width="2480"
         height="1200"
         x="-1608.9893"
         y="2790.4685"
         inkscape:export-filename="C:\Users\markr\Source\Repos\TrueHyperFocal\TrueHyperFocal\Graphics\icon-512.png"
         inkscape:export-xdpi="360"
         inkscape:export-ydpi="360" />
      <g
         transform="matrix(5.433068,0,0,5.433068,-1528.2913,-1145.178)"
         id="g3154">
        <g
           id="g3156"
           transform="matrix(2.0278013,0,0,2.0278013,-13.111486,-184.2542)">
          <path
             d="m 454.94488,225.62393 c 2.15545,0 3.96329,1.73828 3.96329,3.96328 0,2.225 -1.73828,3.96328 -3.96329,3.96328 -2.15549,0 -3.96329,-1.73828 -3.96329,-3.96328 0,-2.225 1.8078,-3.96328 3.96329,-3.96328 z m 0,-2.225 c -3.33749,0 -6.04922,2.71171 -6.04922,6.04921 0,3.3375 2.71173,6.04924 6.04922,6.04924 3.33749,0 6.04923,-2.71174 6.04923,-6.04924 0,-3.3375 -2.71174,-6.04921 -6.04923,-6.04921 z m 5.14529,-4.10235 c 0.48673,0 0.90394,0.41718 0.90394,0.9039 l 0,1.11251 0,0.0696 1.46014,0 c 0.9039,0 1.59921,0.69531 1.59921,1.59921 l 0,12.72424 c 0,0.9039 -0.69531,1.59921 -1.59921,1.59921 l -19.05158,0 c -0.9039,0 -1.59921,-0.69531 -1.59921,-1.59921 l 0,-12.72424 c 0,-0.9039 0.69531,-1.59921 1.59921,-1.59921 l 0.76487,0 0,-0.0696 0,-0.48672 c 0,-0.76485 0.62576,-1.3211 1.32107,-1.3211 l 5.49298,0 c 0.76483,0 1.32111,0.62579 1.32111,1.3211 l 0,0.48672 0,0.0696 6.88357,0 0,-0.0696 0,-1.11251 c 0,-0.13906 0,-0.27812 0.0696,-0.34766 l 0,-0.0695 c 0.20858,-0.27813 0.48668,-0.48671 0.83434,-0.48671 z"
             id="path3158"
             inkscape:connector-curvature="0"
             style="fill:#ffffff" />
          <g
             transform="translate(-0.23395401,1.5101467)"
             id="g3160">
            <path
               style="fill:none;stroke:#ffffff;stroke-width:0.56656343px;stroke-linecap:butt;stroke-linejoin:miter;stroke-opacity:1"
               d="m 424.64286,226.91218 28.59342,-16.50842"
               id="path3162"
               inkscape:connector-curvature="0" />
            <path
               inkscape:connector-curvature="0"
               id="path3164"
               d="m 424.64286,226.66936 28.59342,16.50842"
               style="fill:none;stroke:#ffffff;stroke-width:0.56656343px;stroke-linecap:butt;stroke-linejoin:miter;stroke-opacity:1" />
            <g
               id="g3166"
               transform="translate(-1.9114422,0)"
               style="stroke:#ffffff;stroke-opacity:1">
              <path
                 style="fill:none;stroke:#ffffff;stroke-width:0.56656343px;stroke-linecap:butt;stroke-linejoin:miter;stroke-opacity:1"
                 d="M 483.59342,226.91218 455,210.40376"
                 id="path3168"
                 inkscape:connector-curvature="0" />
              <path
                 inkscape:connector-curvature="0"
                 id="path3170"
                 d="M 483.59342,226.66936 455,243.17778"
                 style="fill:none;stroke:#ffffff;stroke-width:0.56656343px;stroke-linecap:butt;stroke-linejoin:miter;stroke-opacity:1" />
            </g>
          </g>
          <path
             style="fill:#ffffff"
             inkscape:connector-curvature="0"
             id="path3172"
             d="m 454.94488,225.62393 c 2.15545,0 3.96329,1.73828 3.96329,3.96328 0,2.225 -1.73828,3.96328 -3.96329,3.96328 -2.15549,0 -3.96329,-1.73828 -3.96329,-3.96328 0,-2.225 1.8078,-3.96328 3.96329,-3.96328 z m 0,-2.225 c -3.33749,0 -6.04922,2.71171 -6.04922,6.04921 0,3.3375 2.71173,6.04924 6.04922,6.04924 3.33749,0 6.04923,-2.71174 6.04923,-6.04924 0,-3.3375 -2.71174,-6.04921 -6.04923,-6.04921 z m 5.14529,-4.10235 c 0.48673,0 0.90394,0.41718 0.90394,0.9039 l 0,1.11251 0,0.0696 1.46014,0 c 0.9039,0 1.59921,0.69531 1.59921,1.59921 l 0,12.72424 c 0,0.9039 -0.69531,1.59921 -1.59921,1.59921 l -19.05158,0 c -0.9039,0 -1.59921,-0.69531 -1.59921,-1.59921 l 0,-12.72424 c 0,-0.9039 0.69531,-1.59921 1.59921,-1.59921 l 0.76487,0 0,-0.0696 0,-0.48672 c 0,-0.76485 0.62576,-1.3211 1.32107,-1.3211 l 5.49298,0 c 0.76483,0 1.32111,0.62579 1.32111,1.3211 l 0,0.48672 0,0.0696 6.88357,0 0,-0.0696 0,-1.11251 c 0,-0.13906 0,-0.27812 0.0696,-0.34766 l 0,-0.0695 c 0.20858,-0.27813 0.48668,-0.48671 0.83434,-0.48671 z" />
        </g>
      </g>
    </g>
    <g
       transform="matrix(0.5,0,0,0.5,1360.9485,793.06607)"
       id="g3176">
      <rect
         transform="matrix(0,-1,1,0,0,0)"
         style="fill:url(#linearGradient3200);fill-opacity:1"
         id="rect3178"
         width="2480"
         height="1200"
         x="-1608.9893"
         y="2790.4685"
         inkscape:export-filename="C:\Users\markr\Source\Repos\TrueHyperFocal\TrueHyperFocal\Graphics\icon-512.png"
         inkscape:export-xdpi="360"
         inkscape:export-ydpi="360" />
      <g
         transform="matrix(5.433068,0,0,5.433068,-1528.2913,-1145.178)"
         id="g3180">
        <g
           id="g3182"
           transform="matrix(2.0278013,0,0,2.0278013,-13.111486,-184.2542)">
          <path
             d="m 454.94488,225.62393 c 2.15545,0 3.96329,1.73828 3.96329,3.96328 0,2.225 -1.73828,3.96328 -3.96329,3.96328 -2.15549,0 -3.96329,-1.73828 -3.96329,-3.96328 0,-2.225 1.8078,-3.96328 3.96329,-3.96328 z m 0,-2.225 c -3.33749,0 -6.04922,2.71171 -6.04922,6.04921 0,3.3375 2.71173,6.04924 6.04922,6.04924 3.33749,0 6.04923,-2.71174 6.04923,-6.04924 0,-3.3375 -2.71174,-6.04921 -6.04923,-6.04921 z m 5.14529,-4.10235 c 0.48673,0 0.90394,0.41718 0.90394,0.9039 l 0,1.11251 0,0.0696 1.46014,0 c 0.9039,0 1.59921,0.69531 1.59921,1.59921 l 0,12.72424 c 0,0.9039 -0.69531,1.59921 -1.59921,1.59921 l -19.05158,0 c -0.9039,0 -1.59921,-0.69531 -1.59921,-1.59921 l 0,-12.72424 c 0,-0.9039 0.69531,-1.59921 1.59921,-1.59921 l 0.76487,0 0,-0.0696 0,-0.48672 c 0,-0.76485 0.62576,-1.3211 1.32107,-1.3211 l 5.49298,0 c 0.76483,0 1.32111,0.62579 1.32111,1.3211 l 0,0.48672 0,0.0696 6.88357,0 0,-0.0696 0,-1.11251 c 0,-0.13906 0,-0.27812 0.0696,-0.34766 l 0,-0.0695 c 0.20858,-0.27813 0.48668,-0.48671 0.83434,-0.48671 z"
             id="path3184"
             inkscape:connector-curvature="0"
             style="fill:#ffffff" />
          <g
             transform="translate(-0.23395401,1.5101467)"
             id="g3186">
            <path
               style="fill:none;stroke:#ffffff;stroke-width:0.56656343px;stroke-linecap:butt;stroke-linejoin:miter;stroke-opacity:1"
               d="m 424.64286,226.91218 28.59342,-16.50842"
               id="path3188"
               inkscape:connector-curvature="0" />
            <path
               inkscape:connector-curvature="0"
               id="path3190"
               d="m 424.64286,226.66936 28.59342,16.50842"
               style="fill:none;stroke:#ffffff;stroke-width:0.56656343px;stroke-linecap:butt;stroke-linejoin:miter;stroke-opacity:1" />
            <g
               id="g3192"
               transform="translate(-1.9114422,0)"
               style="stroke:#ffffff;stroke-opacity:1">
              <path
                 style="fill:none;stroke:#ffffff;stroke-width:0.56656343px;stroke-linecap:butt;stroke-linejoin:miter;stroke-opacity:1"
                 d="M 483.59342,226.91218 455,210.40376"
                 id="path3194"
                 inkscape:connector-curvature="0" />
              <path
                 inkscape:connector-curvature="0"
                 id="path3196"
                 d="M 483.59342,226.66936 455,243.17778"
                 style="fill:none;stroke:#ffffff;stroke-width:0.56656343px;stroke-linecap:butt;stroke-linejoin:miter;stroke-opacity:1" />
            </g>
          </g>
          <path
             style="fill:#ffffff"
             inkscape:connector-curvature="0"
             id="path3198"
             d="m 454.94488,225.62393 c 2.15545,0 3.96329,1.73828 3.96329,3.96328 0,2.225 -1.73828,3.96328 -3.96329,3.96328 -2.15549,0 -3.96329,-1.73828 -3.96329,-3.96328 0,-2.225 1.8078,-3.96328 3.96329,-3.96328 z m 0,-2.225 c -3.33749,0 -6.04922,2.71171 -6.04922,6.04921 0,3.3375 2.71173,6.04924 6.04922,6.04924 3.33749,0 6.04923,-2.71174 6.04923,-6.04924 0,-3.3375 -2.71174,-6.04921 -6.04923,-6.04921 z m 5.14529,-4.10235 c 0.48673,0 0.90394,0.41718 0.90394,0.9039 l 0,1.11251 0,0.0696 1.46014,0 c 0.9039,0 1.59921,0.69531 1.59921,1.59921 l 0,12.72424 c 0,0.9039 -0.69531,1.59921 -1.59921,1.59921 l -19.05158,0 c -0.9039,0 -1.59921,-0.69531 -1.59921,-1.59921 l 0,-12.72424 c 0,-0.9039 0.69531,-1.59921 1.59921,-1.59921 l 0.76487,0 0,-0.0696 0,-0.48672 c 0,-0.76485 0.62576,-1.3211 1.32107,-1.3211 l 5.49298,0 c 0.76483,0 1.32111,0.62579 1.32111,1.3211 l 0,0.48672 0,0.0696 6.88357,0 0,-0.0696 0,-1.11251 c 0,-0.13906 0,-0.27812 0.0696,-0.34766 l 0,-0.0695 c 0.20858,-0.27813 0.48668,-0.48671 0.83434,-0.48671 z" />
        </g>
      </g>
    </g>
    <g
       id="g3202"
       transform="matrix(0.25,0,0,0.25,4378.5656,1195.3134)">
      <rect
         inkscape:export-ydpi="360"
         inkscape:export-xdpi="360"
         inkscape:export-filename="C:\Users\markr\Source\Repos\TrueHyperFocal\TrueHyperFocal\Graphics\icon-512.png"
         y="2790.4685"
         x="-1608.9893"
         height="1200"
         width="2480"
         id="rect3204"
         style="fill:url(#linearGradient3226);fill-opacity:1"
         transform="matrix(0,-1,1,0,0,0)" />
      <g
         id="g3206"
         transform="matrix(5.433068,0,0,5.433068,-1528.2913,-1145.178)">
        <g
           transform="matrix(2.0278013,0,0,2.0278013,-13.111486,-184.2542)"
           id="g3208">
          <path
             style="fill:#ffffff"
             inkscape:connector-curvature="0"
             id="path3210"
             d="m 454.94488,225.62393 c 2.15545,0 3.96329,1.73828 3.96329,3.96328 0,2.225 -1.73828,3.96328 -3.96329,3.96328 -2.15549,0 -3.96329,-1.73828 -3.96329,-3.96328 0,-2.225 1.8078,-3.96328 3.96329,-3.96328 z m 0,-2.225 c -3.33749,0 -6.04922,2.71171 -6.04922,6.04921 0,3.3375 2.71173,6.04924 6.04922,6.04924 3.33749,0 6.04923,-2.71174 6.04923,-6.04924 0,-3.3375 -2.71174,-6.04921 -6.04923,-6.04921 z m 5.14529,-4.10235 c 0.48673,0 0.90394,0.41718 0.90394,0.9039 l 0,1.11251 0,0.0696 1.46014,0 c 0.9039,0 1.59921,0.69531 1.59921,1.59921 l 0,12.72424 c 0,0.9039 -0.69531,1.59921 -1.59921,1.59921 l -19.05158,0 c -0.9039,0 -1.59921,-0.69531 -1.59921,-1.59921 l 0,-12.72424 c 0,-0.9039 0.69531,-1.59921 1.59921,-1.59921 l 0.76487,0 0,-0.0696 0,-0.48672 c 0,-0.76485 0.62576,-1.3211 1.32107,-1.3211 l 5.49298,0 c 0.76483,0 1.32111,0.62579 1.32111,1.3211 l 0,0.48672 0,0.0696 6.88357,0 0,-0.0696 0,-1.11251 c 0,-0.13906 0,-0.27812 0.0696,-0.34766 l 0,-0.0695 c 0.20858,-0.27813 0.48668,-0.48671 0.83434,-0.48671 z" />
          <g
             id="g3212"
             transform="translate(-0.23395401,1.5101467)">
            <path
               inkscape:connector-curvature="0"
               id="path3214"
               d="m 424.64286,226.91218 28.59342,-16.50842"
               style="fill:none;stroke:#ffffff;stroke-width:0.56656343px;stroke-linecap:butt;stroke-linejoin:miter;stroke-opacity:1" />
            <path
               style="fill:none;stroke:#ffffff;stroke-width:0.56656343px;stroke-linecap:butt;stroke-linejoin:miter;stroke-opacity:1"
               d="m 424.64286,226.66936 28.59342,16.50842"
               id="path3216"
               inkscape:connector-curvature="0" />
            <g
               style="stroke:#ffffff;stroke-opacity:1"
               transform="translate(-1.9114422,0)"
               id="g3218">
              <path
                 inkscape:connector-curvature="0"
                 id="path3220"
                 d="M 483.59342,226.91218 455,210.40376"
                 style="fill:none;stroke:#ffffff;stroke-width:0.56656343px;stroke-linecap:butt;stroke-linejoin:miter;stroke-opacity:1" />
              <path
                 style="fill:none;stroke:#ffffff;stroke-width:0.56656343px;stroke-linecap:butt;stroke-linejoin:miter;stroke-opacity:1"
                 d="M 483.59342,226.66936 455,243.17778"
                 id="path3222"
                 inkscape:connector-curvature="0" />
            </g>
          </g>
          <path
             d="m 454.94488,225.62393 c 2.15545,0 3.96329,1.73828 3.96329,3.96328 0,2.225 -1.73828,3.96328 -3.96329,3.96328 -2.15549,0 -3.96329,-1.73828 -3.96329,-3.96328 0,-2.225 1.8078,-3.96328 3.96329,-3.96328 z m 0,-2.225 c -3.33749,0 -6.04922,2.71171 -6.04922,6.04921 0,3.3375 2.71173,6.04924 6.04922,6.04924 3.33749,0 6.04923,-2.71174 6.04923,-6.04924 0,-3.3375 -2.71174,-6.04921 -6.04923,-6.04921 z m 5.14529,-4.10235 c 0.48673,0 0.90394,0.41718 0.90394,0.9039 l 0,1.11251 0,0.0696 1.46014,0 c 0.9039,0 1.59921,0.69531 1.59921,1.59921 l 0,12.72424 c 0,0.9039 -0.69531,1.59921 -1.59921,1.59921 l -19.05158,0 c -0.9039,0 -1.59921,-0.69531 -1.59921,-1.59921 l 0,-12.72424 c 0,-0.9039 0.69531,-1.59921 1.59921,-1.59921 l 0.76487,0 0,-0.0696 0,-0.48672 c 0,-0.76485 0.62576,-1.3211 1.32107,-1.3211 l 5.49298,0 c 0.76483,0 1.32111,0.62579 1.32111,1.3211 l 0,0.48672 0,0.0696 6.88357,0 0,-0.0696 0,-1.11251 c 0,-0.13906 0,-0.27812 0.0696,-0.34766 l 0,-0.0695 c 0.20858,-0.27813 0.48668,-0.48671 0.83434,-0.48671 z"
             id="path3224"
             inkscape:connector-curvature="0"
             style="fill:#ffffff" />
        </g>
      </g>
    </g>
  </g>
</svg>
