<?xml version="1.0" encoding="UTF-8" standalone="no"?>
<!-- Created with Inkscape (http://www.inkscape.org/) -->

<svg
   xmlns:dc="http://purl.org/dc/elements/1.1/"
   xmlns:cc="http://creativecommons.org/ns#"
   xmlns:rdf="http://www.w3.org/1999/02/22-rdf-syntax-ns#"
   xmlns:svg="http://www.w3.org/2000/svg"
   xmlns="http://www.w3.org/2000/svg"
   xmlns:xlink="http://www.w3.org/1999/xlink"
   xmlns:sodipodi="http://sodipodi.sourceforge.net/DTD/sodipodi-0.dtd"
   xmlns:inkscape="http://www.inkscape.org/namespaces/inkscape"
   width="512"
   height="512"
   id="svg3986"
   version="1.1"
   inkscape:version="0.48.5 r10040"
   sodipodi:docname="UWP-Icon.svg"
   inkscape:export-filename="C:\Users\markr\Source\Repos\TrueHyperFocal\TrueHyperFocal\Graphics\Icon.png"
   inkscape:export-xdpi="22.5"
   inkscape:export-ydpi="22.5">
  <defs
     id="defs3988">
    <linearGradient
       inkscape:collect="always"
       xlink:href="#linearGradient3800"
       id="linearGradient3949"
       gradientUnits="userSpaceOnUse"
       x1="421.36719"
       y1="196.48111"
       x2="484.48978"
       y2="259.86816" />
    <linearGradient
       id="linearGradient3800">
      <stop
         style="stop-color:#800000;stop-opacity:1;"
         offset="0"
         id="stop3802" />
      <stop
         style="stop-color:#4b0000;stop-opacity:1;"
         offset="1"
         id="stop3804" />
    </linearGradient>
  </defs>
  <sodipodi:namedview
     id="base"
     pagecolor="#ffffff"
     bordercolor="#666666"
     borderopacity="1.0"
     inkscape:pageopacity="0.0"
     inkscape:pageshadow="2"
     inkscape:zoom="0.35"
     inkscape:cx="259.00003"
     inkscape:cy="-50.285679"
     inkscape:document-units="px"
     inkscape:current-layer="layer1"
     showgrid="false"
     fit-margin-top="0"
     fit-margin-left="0"
     fit-margin-right="0"
     fit-margin-bottom="0"
     inkscape:window-width="1920"
     inkscape:window-height="1017"
     inkscape:window-x="1672"
     inkscape:window-y="-8"
     inkscape:window-maximized="1" />
  <metadata
     id="metadata3991">
    <rdf:RDF>
      <cc:Work
         rdf:about="">
        <dc:format>image/svg+xml</dc:format>
        <dc:type
           rdf:resource="http://purl.org/dc/dcmitype/StillImage" />
        <dc:title></dc:title>
      </cc:Work>
    </rdf:RDF>
  </metadata>
  <g
     inkscape:label="Layer 1"
     inkscape:groupmode="layer"
     id="layer1"
     transform="translate(-115.99996,29.923495)">
    <g
       transform="matrix(8.1112053,0,0,8.1112053,-3301.7958,-1625.7191)"
       id="g3929">
      <rect
         style="fill:url(#linearGradient3949);fill-opacity:1"
         id="rect3931"
         width="63.122555"
         height="63.122555"
         x="421.36719"
         y="196.73964"
         inkscape:export-filename="C:\Users\markr\Source\Repos\TrueHyperFocal\TrueHyperFocal\Graphics\icon-512.png"
         inkscape:export-xdpi="360"
         inkscape:export-ydpi="360" />
      <path
         style="fill:#ffffff"
         inkscape:connector-curvature="0"
         id="path3933"
         d="m 454.94488,225.62393 c 2.15545,0 3.96329,1.73828 3.96329,3.96328 0,2.225 -1.73828,3.96328 -3.96329,3.96328 -2.15549,0 -3.96329,-1.73828 -3.96329,-3.96328 0,-2.225 1.8078,-3.96328 3.96329,-3.96328 z m 0,-2.225 c -3.33749,0 -6.04922,2.71171 -6.04922,6.04921 0,3.3375 2.71173,6.04924 6.04922,6.04924 3.33749,0 6.04923,-2.71174 6.04923,-6.04924 0,-3.3375 -2.71174,-6.04921 -6.04923,-6.04921 z m 5.14529,-4.10235 c 0.48673,0 0.90394,0.41718 0.90394,0.9039 l 0,1.11251 0,0.0696 1.46014,0 c 0.9039,0 1.59921,0.69531 1.59921,1.59921 l 0,12.72424 c 0,0.9039 -0.69531,1.59921 -1.59921,1.59921 l -19.05158,0 c -0.9039,0 -1.59921,-0.69531 -1.59921,-1.59921 l 0,-12.72424 c 0,-0.9039 0.69531,-1.59921 1.59921,-1.59921 l 0.76487,0 0,-0.0696 0,-0.48672 c 0,-0.76485 0.62576,-1.3211 1.32107,-1.3211 l 5.49298,0 c 0.76483,0 1.32111,0.62579 1.32111,1.3211 l 0,0.48672 0,0.0696 6.88357,0 0,-0.0696 0,-1.11251 c 0,-0.13906 0,-0.27812 0.0696,-0.34766 l 0,-0.0695 c 0.20858,-0.27813 0.48668,-0.48671 0.83434,-0.48671 z" />
      <g
         id="g3935"
         transform="translate(-0.23395401,1.5101467)">
        <path
           inkscape:connector-curvature="0"
           id="path3937"
           d="m 424.64286,226.91218 28.59342,-16.50842"
           style="fill:none;stroke:#ffffff;stroke-width:0.56656343px;stroke-linecap:butt;stroke-linejoin:miter;stroke-opacity:1" />
        <path
           style="fill:none;stroke:#ffffff;stroke-width:0.56656343px;stroke-linecap:butt;stroke-linejoin:miter;stroke-opacity:1"
           d="m 424.64286,226.66936 28.59342,16.50842"
           id="path3939"
           inkscape:connector-curvature="0" />
        <g
           style="stroke:#ffffff;stroke-opacity:1"
           transform="translate(-1.9114422,0)"
           id="g3941">
          <path
             inkscape:connector-curvature="0"
             id="path3943"
             d="M 483.59342,226.91218 455,210.40376"
             style="fill:none;stroke:#ffffff;stroke-width:0.56656343px;stroke-linecap:butt;stroke-linejoin:miter;stroke-opacity:1" />
          <path
             style="fill:none;stroke:#ffffff;stroke-width:0.56656343px;stroke-linecap:butt;stroke-linejoin:miter;stroke-opacity:1"
             d="M 483.59342,226.66936 455,243.17778"
             id="path3945"
             inkscape:connector-curvature="0" />
        </g>
      </g>
      <path
         d="m 454.94488,225.62393 c 2.15545,0 3.96329,1.73828 3.96329,3.96328 0,2.225 -1.73828,3.96328 -3.96329,3.96328 -2.15549,0 -3.96329,-1.73828 -3.96329,-3.96328 0,-2.225 1.8078,-3.96328 3.96329,-3.96328 z m 0,-2.225 c -3.33749,0 -6.04922,2.71171 -6.04922,6.04921 0,3.3375 2.71173,6.04924 6.04922,6.04924 3.33749,0 6.04923,-2.71174 6.04923,-6.04924 0,-3.3375 -2.71174,-6.04921 -6.04923,-6.04921 z m 5.14529,-4.10235 c 0.48673,0 0.90394,0.41718 0.90394,0.9039 l 0,1.11251 0,0.0696 1.46014,0 c 0.9039,0 1.59921,0.69531 1.59921,1.59921 l 0,12.72424 c 0,0.9039 -0.69531,1.59921 -1.59921,1.59921 l -19.05158,0 c -0.9039,0 -1.59921,-0.69531 -1.59921,-1.59921 l 0,-12.72424 c 0,-0.9039 0.69531,-1.59921 1.59921,-1.59921 l 0.76487,0 0,-0.0696 0,-0.48672 c 0,-0.76485 0.62576,-1.3211 1.32107,-1.3211 l 5.49298,0 c 0.76483,0 1.32111,0.62579 1.32111,1.3211 l 0,0.48672 0,0.0696 6.88357,0 0,-0.0696 0,-1.11251 c 0,-0.13906 0,-0.27812 0.0696,-0.34766 l 0,-0.0695 c 0.20858,-0.27813 0.48668,-0.48671 0.83434,-0.48671 z"
         id="path3947"
         inkscape:connector-curvature="0"
         style="fill:#ffffff" />
    </g>
  </g>
</svg>
